<svg xmlns="http://www.w3.org/2000/svg" width="26" height="26" viewBox="0 0 26 26">
  <path id="Combined_Shape" data-name="Combined Shape" d="M7.175,26A7.183,7.183,0,0,1,0,18.824V7.175A7.183,7.183,0,0,1,7.175,0h11.65A7.183,7.183,0,0,1,26,7.175v11.65A7.184,7.184,0,0,1,18.824,26ZM2.307,7.175v11.65a4.874,4.874,0,0,0,4.868,4.869h11.65a4.875,4.875,0,0,0,4.869-4.869V7.175a4.874,4.874,0,0,0-4.869-4.868H7.175A4.873,4.873,0,0,0,2.307,7.175ZM6.3,13A6.7,6.7,0,1,1,13,19.7,6.707,6.707,0,0,1,6.3,13Zm2.308,0A4.392,4.392,0,1,0,13,8.607,4.4,4.4,0,0,0,8.608,13ZM18.785,7.233a1.693,1.693,0,1,1,1.2.495A1.713,1.713,0,0,1,18.785,7.233Z" fill="#111"/>
</svg>
