<svg xmlns="http://www.w3.org/2000/svg" width="18" height="18" viewBox="0 0 18 18">
  <path id="Combined_Shape" data-name="Combined Shape" d="M5.289,17.946a6.574,6.574,0,0,1-2.184-.419A4.437,4.437,0,0,1,1.511,16.49,4.419,4.419,0,0,1,.473,14.9a6.681,6.681,0,0,1-.419-2.184C.01,11.741,0,11.419,0,9s.01-2.74.054-3.712A6.681,6.681,0,0,1,.473,3.105,4.411,4.411,0,0,1,1.511,1.51,4.426,4.426,0,0,1,3.105.473,6.551,6.551,0,0,1,5.289.054C6.239.009,6.527,0,9,0S11.76.009,12.71.054a6.542,6.542,0,0,1,2.184.419A4.4,4.4,0,0,1,16.488,1.51a4.447,4.447,0,0,1,1.04,1.595,6.748,6.748,0,0,1,.418,2.184C17.989,6.261,18,6.583,18,9s-.011,2.74-.054,3.71a6.748,6.748,0,0,1-.418,2.184,4.607,4.607,0,0,1-2.634,2.632,6.564,6.564,0,0,1-2.184.419C11.76,17.991,11.473,18,9,18S6.239,17.991,5.289,17.946ZM5.363,1.675a5,5,0,0,0-1.671.309,2.785,2.785,0,0,0-1.034.673,2.808,2.808,0,0,0-.673,1.035,4.929,4.929,0,0,0-.309,1.672C1.632,6.306,1.623,6.591,1.623,9s.009,2.693.053,3.637a4.938,4.938,0,0,0,.309,1.671,2.981,2.981,0,0,0,1.707,1.708,5.015,5.015,0,0,0,1.671.308c.943.044,1.228.053,3.638.053s2.69-.009,3.635-.053a4.978,4.978,0,0,0,1.671-.308,2.97,2.97,0,0,0,1.706-1.708,4.928,4.928,0,0,0,.312-1.671c.041-.934.05-1.217.05-3.637s-.009-2.7-.05-3.637a4.914,4.914,0,0,0-.312-1.672,2.8,2.8,0,0,0-.671-1.035,2.789,2.789,0,0,0-1.035-.673,4.967,4.967,0,0,0-1.671-.309c-.945-.044-1.229-.053-3.635-.053S6.306,1.631,5.363,1.675ZM4.38,9A4.62,4.62,0,1,1,9,13.622,4.627,4.627,0,0,1,4.38,9ZM6,9A3,3,0,1,0,9,6,3,3,0,0,0,6,9ZM12.723,4.2A1.08,1.08,0,1,1,13.8,5.275,1.079,1.079,0,0,1,12.723,4.2Z" transform="translate(0 0)" fill="#202020"/>
</svg>
