<svg xmlns="http://www.w3.org/2000/svg" width="186" height="40" viewBox="0 0 186 40">
  <path id="Combined_Shape" data-name="Combined Shape" d="M175.616,40H165.558a.51.51,0,0,1,.029-.449.469.469,0,0,1,.392-.135h.065c.078,0,.164.005.26.005s.2,0,.3,0h.038c.111,0,.224,0,.335,0,.159,0,.291,0,.413.015.046,0,.09.006.13.006a.529.529,0,0,0,.4-.128.758.758,0,0,0,.14-.562c-.019-.951-.015-1.92-.012-2.855v-.008c0-.374,0-.749,0-1.123V16.123c0-.772,0-.772-.775-.773l-1.351,0a.439.439,0,0,1-.32-.089.3.3,0,0,1-.068-.233c.009-.252.183-.287.369-.287h2.179c1.428,0,2.906,0,4.36,0a.407.407,0,0,1,.3.1.464.464,0,0,1,.1.343c0,.506,0,1.017,0,1.56,0,.234,0,.472,0,.722l.154-.306c.1-.2.185-.371.276-.536a4.471,4.471,0,0,1,3.982-2.426c.141-.007.284-.01.425-.01a7.836,7.836,0,0,1,5.406,2.115,9.145,9.145,0,0,1,2.73,5.025q.045.239.087.478c.032.175.064.35.1.525v1.617c-.008.036-.016.071-.025.106a2.561,2.561,0,0,0-.052.26,8.737,8.737,0,0,1-7.545,7.609,6.682,6.682,0,0,1-.76.045,4.731,4.731,0,0,1-4.34-2.591c-.056-.1-.113-.2-.186-.327-.043-.075-.091-.158-.147-.257v2.364c0,2.683,0,5.213-.006,7.787,0,.357.127.5.454.5l.055,0c.108,0,.223-.006.362-.006l.316,0h.047c.124,0,.248,0,.373,0,.18,0,.329,0,.47-.013l.085,0a.534.534,0,0,1,.41.136.577.577,0,0,1,.107.452h0Zm-1.287-23.712a5.445,5.445,0,0,0-.733,1.493,16.652,16.652,0,0,0-.645,4.726l0,.116a25.473,25.473,0,0,0,.22,4.125,6.228,6.228,0,0,0,1.466,3.415,3.374,3.374,0,0,0,2.6,1.156,4.776,4.776,0,0,0,.948-.1c1.225-.247,1.67-1.236,1.97-2.268a8.488,8.488,0,0,0,.3-1.583,45.228,45.228,0,0,0-.01-8.328,7.238,7.238,0,0,0-.728-2.74,2.517,2.517,0,0,0-1.538-1.351,3.808,3.808,0,0,0-1.074-.161A3.349,3.349,0,0,0,174.329,16.287ZM84.249,31.419a3.427,3.427,0,0,1-2.183-3.561c.006-2.533,0-5.066,0-7.6,0-1.383-.014-2.767.008-4.15.006-.43-.147-.557-.565-.552q-2.055.031-4.109,0c-.407-.005-.575.1-.574.542q.022,7.086,0,14.174c0,.4.123.545.527.531.72-.023,1.442-.008,2.163,0,.2,0,.417-.014.432.276.017.324-.211.33-.435.33q-4.975,0-9.948,0c-.215,0-.463.019-.461-.306s.251-.3.464-.3c.541-.005,1.084-.032,1.622.005.492.035.6-.164.6-.623-.015-4.221-.009-8.443-.009-12.664,0-.467-.021-.936.006-1.4.024-.415-.109-.589-.549-.564-.574.031-1.153.007-1.73,0-.209,0-.409-.024-.408-.306s.2-.3.411-.3c.541,0,1.084-.036,1.621.006s.666-.174.659-.678c-.023-1.8-.026-3.594.006-5.389a14.462,14.462,0,0,1,.7-4.343A6.371,6.371,0,0,1,77.942.077c.122-.021.244-.051.366-.077h4.11a8.448,8.448,0,0,1,2.83,1.006,4.165,4.165,0,0,1,2.068,3.785,2.773,2.773,0,0,1-2.652,2.683c-.162,0-.324,0-.486,0a2.266,2.266,0,0,1-2.357-2.735c.08-.6.2-1.2.305-1.8A1.738,1.738,0,0,0,80.356.678C79.872.647,79.384.652,78.9.668a1.724,1.724,0,0,0-1.75,1.322,8.283,8.283,0,0,0-.306,2.557c-.026,3.27-.005,6.539-.019,9.809,0,.422.092.613.566.6q2.053-.042,4.109,0c.471.01.577-.176.571-.6-.02-1.31-.008-2.622-.007-3.934,0-.779.007-.794.726-.548a5.162,5.162,0,0,0,3.44,0c.655-.223.661-.21.662.507,0,1.347.012,2.695-.006,4.042-.005.4.122.547.527.531.648-.024,1.3-.006,1.946,0,.223,0,.451,0,.437.327-.013.292-.229.281-.427.283-.612,0-1.227.031-1.838-.005-.49-.029-.654.125-.648.633.041,3.663.053,7.327.076,10.991,0,.646,0,1.294.035,1.94a2,2,0,0,0,3.262,1.625,3.55,3.55,0,0,0,1.354-1.64c.148-.347.277-.7.4-1.059.081-.244.2-.348.477-.289.324.07.281.284.236.5a4.127,4.127,0,0,1-2.751,3.333,8.467,8.467,0,0,1-2.64.43A8.345,8.345,0,0,1,84.249,31.419Zm25.144-.284c-.68-.176-1.354-.371-2.038-.529-.637-.147-1.232-.122-1.553.589-.116.257-.346.228-.559.2-.274-.037-.259-.268-.26-.46-.005-1.293,0-2.587,0-3.88h0c0-1.239-.005-2.479,0-3.719,0-.248-.087-.576.334-.613.384-.032.422.241.482.515a11.864,11.864,0,0,0,2.61,5.37,7.865,7.865,0,0,0,7.015,2.691,6.91,6.91,0,0,0,3.788-1.246,5.654,5.654,0,0,0,2.268-5.692,3.663,3.663,0,0,0-1.562-2.316A11.05,11.05,0,0,0,116.3,20.4a52.372,52.372,0,0,1-5.642-1.849,7.612,7.612,0,0,1-4.729-4.853,7.842,7.842,0,0,1,4.108-9.394,10.7,10.7,0,0,1,8.636-.626c.6.194,1.184.432,1.778.641a1.333,1.333,0,0,0,1.852-.472.524.524,0,0,1,.538-.157c.236.046.245.232.245.418q0,3.314,0,6.628c0,.2-.005.41-.281.437a.4.4,0,0,1-.439-.312q-.406-1.114-.827-2.221a10,10,0,0,0-1.365-2.5,6.214,6.214,0,0,0-5.6-2.416,7.2,7.2,0,0,0-3.407.924,4.708,4.708,0,0,0-2.472,3.233,3.507,3.507,0,0,0,1.276,3.512,11.693,11.693,0,0,0,4.19,2.05c2.008.636,4.032,1.227,5.979,2.039a8.941,8.941,0,0,1,3.482,2.4c2.134,2.522,2.134,5.357.892,8.194-1.517,3.464-4.443,5.152-8.072,5.754a10.914,10.914,0,0,1-1.786.143A21.014,21.014,0,0,1,109.393,31.135Zm46.042.832a9.391,9.391,0,0,1-8.074-4.2,8.343,8.343,0,0,1-1.248-6.456,8.969,8.969,0,0,1,3.858-5.495,10.073,10.073,0,0,1,12.135.84,8.523,8.523,0,0,1,2.866,7.44,8.65,8.65,0,0,1-4.6,6.655,9.739,9.739,0,0,1-4.707,1.222Zm-3.588-14.379a7.7,7.7,0,0,0-.211.778,25.538,25.538,0,0,0-.325,4.9,19.263,19.263,0,0,0,.086,2.618c.014.2.03.392.043.587a7.661,7.661,0,0,0,.839,3.1,3.5,3.5,0,0,0,3.209,1.755,3.6,3.6,0,0,0,2.637-.99,5.236,5.236,0,0,0,1.227-2.651,34.286,34.286,0,0,0,.19-8,7.252,7.252,0,0,0-.711-2.857,3.2,3.2,0,0,0-2.124-1.857,6,6,0,0,0-1.331-.162A3.521,3.521,0,0,0,151.847,17.587ZM35.255,31.1a2.984,2.984,0,0,1-2.088-3.014q0-5.578,0-11.155a4.11,4.11,0,0,0-.069-.8,1.26,1.26,0,0,0-1.727-1.035c-.216.062-.415.223-.673.155.005-.256.218-.326.375-.413a5.663,5.663,0,0,1,5.386-.219,2.868,2.868,0,0,1,1.66,2.852c-.017,3.7-.009,7.4-.005,11.1a4.11,4.11,0,0,0,.068.8A1.261,1.261,0,0,0,39.909,30.4a1.176,1.176,0,0,1,.778-.126,4.3,4.3,0,0,1-2.663,1.107c-.284.026-.569.042-.853.042A5.172,5.172,0,0,1,35.255,31.1Zm32.55.316a1.437,1.437,0,0,0-.146-.009c-2.145.011-4.289.006-6.433.006-.829,0-1.658,0-2.487,0h-.05c-.2,0-.411,0-.413-.3,0-.327.242-.307.457-.309.5-.006,1.011-.03,1.513,0,.469.031.625-.122.621-.6-.022-2.443-.01-4.886-.01-7.329,0-2.3-.014-4.6.011-6.9.005-.5-.15-.671-.645-.635s-1.009.008-1.514.006c-.228,0-.441-.016-.438-.332s.229-.334.448-.335c1.225-.008,2.451-.007,3.676-.007.275,0,.552,0,.827,0,.608,0,1.215.007,1.822-.008.479-.013.662.138.657.647-.023,2.5-.01,4.993-.01,7.491,0,2.461.01,4.921-.009,7.383,0,.461.114.661.6.62a10.086,10.086,0,0,1,1.35,0,1.454,1.454,0,0,0,.171-.009c.212-.019.443-.039.454.3.008.279-.137.33-.3.33C67.907,31.423,67.855,31.418,67.805,31.414Zm-47.695-.333c.014-.3.224-.292.418-.284.04,0,.079,0,.116,0,.522-.013,1.046-.018,1.567,0,.355.012.5-.131.466-.477a2.683,2.683,0,0,1,0-.269q0-12.066.006-24.134a1.324,1.324,0,0,0-1.1-1.547c-.2-.066-.314-.141-.3-.365s.157-.272.333-.264c.381.017.763.006,1.146,0a8.57,8.57,0,0,1,2.085.111,3.177,3.177,0,0,1,2.774,3.472c-.014,2.694,0,5.387,0,8.081,0,2.586.058,5.173-.018,7.757-.067,2.276-.086,4.553-.092,6.829,0,.806,0,.806.834.806.4,0,.792,0,1.189,0,.2,0,.417,0,.427.287.012.319-.221.323-.445.323l-5.188,0c-1.225,0-2.45,0-3.675,0-.035,0-.071,0-.108,0l-.1,0C20.261,31.413,20.1,31.373,20.111,31.081Zm-13.882.329c-.211,0-.47.035-.481-.286s.224-.328.441-.326h.057c.829,0,1.659-.02,2.487,0,.425.013.57-.138.565-.559-.018-1.509-.006-3.018-.006-4.527q0-10.3,0-20.588c0-.774,0-.782-.766-.774a14.138,14.138,0,0,0-2.951.282A5.79,5.79,0,0,0,1.566,8.182,15.179,15.179,0,0,0,.7,10.446c-.111.382-.3.554-.7.443V3.774c.215-.013.43-.035.646-.036q9.407,0,18.815,0a.811.811,0,0,1,.162,0,.932.932,0,0,0,.208,0c.2-.011.406-.022.407.3,0,.352-.244.331-.462.311-.053,0-.105-.01-.151-.009-1.334.013-2.668.02-4,0-.419-.006-.563.124-.562.553q.015,12.666,0,25.331c0,.459.161.588.6.573.81-.026,1.622-.013,2.433,0,.033,0,.069,0,.106,0,.2-.008.408-.017.422.291.018.37-.27.321-.494.321l-6.548,0Zm36.146,0c-.2,0-.415.012-.428-.281-.014-.324.212-.324.437-.329.036,0,.072,0,.107,0,1.278-.031,1.278-.031,1.278-1.334q0-6.711,0-13.423c0-.7,0-.7-.722-.706-.234,0-.469,0-.7-.005-.214,0-.394-.048-.4-.321-.009-.3.184-.357.421-.36.343,0,.685,0,1.028,0q2.217,0,4.434,0c.729,0,.745.017.746.766q0,3.692,0,7.384H48.6V30.07c0,.725,0,.725.752.725.631,0,1.262,0,1.893,0,.2,0,.418,0,.434.281.017.316-.208.331-.437.331Q46.809,31.41,42.375,31.408Zm97-.634a2.87,2.87,0,0,1-1.661-2.852c.018-3.682.009-7.365.007-11.047a4.352,4.352,0,0,0-.045-.751,1.288,1.288,0,0,0-1.853-1.105,1.268,1.268,0,0,1-.664.125,2.331,2.331,0,0,1,1.034-.727,6.063,6.063,0,0,1,4.279-.154,2.964,2.964,0,0,1,2.194,3.1q0,5.523,0,11.047a4.341,4.341,0,0,0,.045.751,1.288,1.288,0,0,0,1.854,1.105,1.243,1.243,0,0,1,.572-.137c-.005.273-.218.342-.374.429a6,6,0,0,1-2.912.8A5.773,5.773,0,0,1,139.375,30.775Zm-14.3.526c-.205,0-.41-.014-.414-.3s.191-.31.4-.31c.577,0,1.154-.014,1.73,0,.326.007.465-.123.442-.445-.012-.161,0-.324,0-.485q0-11.96.013-23.919c0-.722-.259-1.453-1.129-1.587a.283.283,0,0,1-.277-.324.262.262,0,0,1,.3-.292c.385.017.772.005,1.159-.005a7.546,7.546,0,0,1,2.388.183,3.084,3.084,0,0,1,2.488,3.315c-.009,2.73,0,5.459,0,8.188h0c0,2.73.074,5.462-.023,8.188-.077,2.17-.039,4.339-.1,6.507-.015.563.173.731.709.682.446-.041.9-.008,1.35-.005.212,0,.409.034.4.311s-.208.3-.416.3h-9.025Zm-26.4-9.846a1.725,1.725,0,1,1,1.768-1.711,1.753,1.753,0,0,1-1.768,1.711Zm-45.971-1.8a1.739,1.739,0,0,1-.463-1.685c.063-.461.168-.92.193-1.382a1.152,1.152,0,0,0-1.653-1.233,1.07,1.07,0,0,1-.516.114c-.006-.251.184-.323.324-.409a4.867,4.867,0,0,1,4.79-.309c1.9.877,1.948,3.277,1.326,4.463a1.678,1.678,0,0,1-.484.571,2.812,2.812,0,0,1-1.624.428A3.01,3.01,0,0,1,52.708,19.651ZM63.242,9.2a2.83,2.83,0,0,1-2.805-2.808,2.832,2.832,0,0,1,5.664.045A2.847,2.847,0,0,1,63.25,9.2Z" fill="#111"/>
</svg>
